<svg id="evwoix6fjrr81" xmlns="http://www.w3.org/2000/svg" xmlns:xlink="http://www.w3.org/1999/xlink" viewBox="0 0 478.703000 478.703000" shape-rendering="geometricPrecision" text-rendering="geometricPrecision"><style><![CDATA[#evwoix6fjrr84_tr {animation: evwoix6fjrr84_tr__tr 3000ms linear infinite normal forwards}@keyframes evwoix6fjrr84_tr__tr { 0% {transform: translate(239.351563px,239.349609px) rotate(90deg)} 100% {transform: translate(239.351563px,239.349609px) rotate(0deg)} }]]></style><defs><filter id="evwoix6fjrr84-filter" x="-400%" width="600%" y="-400%" height="600%"><feColorMatrix id="evwoix6fjrr84-filter-grayscale-0" type="matrix" values="0.433072 0.514944 0.051984 0 0 0.153072 0.794944 0.051984 0 0 0.153072 0.514944 0.331984 0 0 0 0 0 1 0" result="result"/></filter></defs><g id="evwoix6fjrr82"><g id="evwoix6fjrr83"><g id="evwoix6fjrr84_tr" transform="translate(239.351563,239.349609) rotate(90)"><path id="evwoix6fjrr84" d="M454.200000,189.101000L420.600000,183.401000C417.100000,172.101000,412.600000,161.201000,407.100000,150.801000L426.900000,123.101000C435.300000,111.301000,434,95.201000,423.700000,85.001000L393.900000,55.201000C388.300000,49.601000,380.900000,46.501000,373,46.501000C366.800000,46.501000,360.900000,48.401000,355.900000,52.001000L328.100000,71.801000C317.300000,66.101000,306,61.401000,294.300000,57.901000L288.700000,24.701000C286.300000,10.401000,274,0.001000,259.500000,0.001000L217.400000,0.001000C202.900000,0.001000,190.600000,10.401000,188.200000,24.701000L182.400000,58.701000C171.200000,62.201000,160.300000,66.801000,149.900000,72.401000L122.400000,52.601000C117.400000,49.001000,111.400000,47.101000,105.200000,47.101000C97.300000,47.101000,89.800000,50.201000,84.300000,55.801000L54.400000,85.601000C44.200000,95.801000,42.800000,111.901000,51.200000,123.701000L71.200000,151.801000C65.700000,162.301000,61.300000,173.201000,57.900000,184.501000L24.700000,190.101000C10.400000,192.501000,-0,204.801000,-0,219.301000L-0,261.401000C-0,275.901000,10.400000,288.201000,24.700000,290.601000L58.700000,296.401000C62.200000,307.601000,66.800000,318.501000,72.400000,328.901000L52.700000,356.301000C44.300000,368.101000,45.600000,384.201000,55.900000,394.401000L85.700000,424.201000C91.300000,429.801000,98.700000,432.901000,106.600000,432.901000C112.800000,432.901000,118.700000,431.001000,123.700000,427.401000L151.800000,407.401000C161.900000,412.701000,172.500000,417.001000,183.400000,420.401000L189,454.001000C191.400000,468.301000,203.700000,478.701000,218.200000,478.701000L260.400000,478.701000C274.900000,478.701000,287.200000,468.301000,289.600000,454.001000L295.300000,420.401000C306.600000,416.901000,317.500000,412.401000,327.900000,406.901000L355.600000,426.701000C360.600000,430.301000,366.600000,432.201000,372.800000,432.201000L372.800000,432.201000C380.700000,432.201000,388.100000,429.101000,393.700000,423.501000L423.500000,393.701000C433.700000,383.501000,435.100000,367.401000,426.700000,355.601000L406.900000,327.801000C412.400000,317.301000,417,306.401000,420.400000,295.201000L454,289.601000C468.300000,287.201000,478.700000,274.901000,478.700000,260.401000L478.700000,218.301000C478.900000,203.801000,468.500000,191.501000,454.200000,189.101000ZM451.900000,260.401000C451.900000,261.701000,451,262.801000,449.700000,263.001000L407.700000,270.001000C402.400000,270.901000,398.200000,274.801000,396.900000,279.901000C393.100000,294.601000,387.300000,308.701000,379.500000,321.801000C376.800000,326.401000,377,332.101000,380.100000,336.501000L404.800000,371.301000C405.500000,372.301000,405.400000,373.801000,404.500000,374.701000L374.700000,404.501000C374,405.201000,373.300000,405.301000,372.800000,405.301000C372.200000,405.301000,371.700000,405.101000,371.300000,404.801000L336.600000,380.101000C332.300000,377.001000,326.500000,376.801000,321.900000,379.501000C308.800000,387.301000,294.700000,393.101000,280,396.901000C274.800000,398.201000,270.900000,402.501000,270.100000,407.701000L263,449.701000C262.800000,451.001000,261.700000,451.901000,260.400000,451.901000L218.300000,451.901000C217,451.901000,215.900000,451.001000,215.700000,449.701000L208.700000,407.701000C207.800000,402.401000,203.900000,398.201000,198.800000,396.901000C184.500000,393.201000,170.700000,387.501000,157.800000,380.101000C155.700000,378.901000,153.300000,378.301000,151,378.301000C148.300000,378.301000,145.500000,379.101000,143.200000,380.801000L108.200000,405.701000C107.700000,406.001000,107.200000,406.201000,106.700000,406.201000C106.300000,406.201000,105.500000,406.101000,104.800000,405.401000L75,375.601000C74.100000,374.701000,74,373.301000,74.700000,372.201000L99.300000,337.701000C102.400000,333.301000,102.600000,327.501000,99.900000,322.901000C92.100000,309.901000,86.100000,295.801000,82.300000,281.101000C80.900000,276.001000,76.700000,272.101000,71.500000,271.201000L29.200000,264.001000C27.900000,263.801000,27,262.701000,27,261.401000L27,219.301000C27,218.001000,27.900000,216.901000,29.200000,216.701000L70.900000,209.701000C76.200000,208.801000,80.500000,204.901000,81.800000,199.701000C85.500000,185.001000,91.200000,170.801000,98.900000,157.701000C101.600000,153.101000,101.300000,147.401000,98.200000,143.101000L73.300000,108.101000C72.600000,107.101000,72.700000,105.601000,73.600000,104.701000L103.400000,74.901000C104.100000,74.201000,104.800000,74.101000,105.300000,74.101000C105.900000,74.101000,106.400000,74.301000,106.800000,74.601000L141.300000,99.201000C145.700000,102.301000,151.500000,102.501000,156.100000,99.801000C169.100000,92.001000,183.200000,86.001000,197.900000,82.201000C203,80.801000,206.900000,76.601000,207.800000,71.401000L215,29.101000C215.200000,27.801000,216.300000,26.901000,217.600000,26.901000L259.700000,26.901000C261,26.901000,262.100000,27.801000,262.300000,29.101000L269.300000,70.801000C270.200000,76.101000,274.100000,80.401000,279.300000,81.701000C294.400000,85.501000,308.800000,91.401000,322.200000,99.301000C326.800000,102.001000,332.500000,101.801000,336.900000,98.701000L371.400000,73.901000C371.900000,73.601000,372.400000,73.401000,372.900000,73.401000C373.300000,73.401000,374.100000,73.501000,374.800000,74.201000L404.600000,104.001000C405.500000,104.901000,405.600000,106.301000,404.900000,107.401000L380.200000,142.101000C377.100000,146.401000,376.900000,152.201000,379.600000,156.801000C387.400000,169.901000,393.200000,184.001000,397,198.701000C398.300000,203.901000,402.600000,207.801000,407.800000,208.601000L449.800000,215.701000C451.100000,215.901000,452,217.001000,452,218.301000L452,260.401000L451.900000,260.401000Z" transform="translate(-239.351563,-239.349609)" filter="url(#evwoix6fjrr84-filter)" fill="rgb(227,169,169)" stroke="rgb(210,158,158)" stroke-width="1"/></g><path id="evwoix6fjrr85" d="M239.400000,136.001000C182.400000,136.001000,136.100000,182.301000,136.100000,239.301000C136.100000,296.301000,182.400000,342.601000,239.400000,342.601000C296.400000,342.601000,342.700000,296.301000,342.700000,239.301000C342.700000,182.301000,296.400000,136.001000,239.400000,136.001000ZM239.400000,315.601000C197.300000,315.601000,163.100000,281.401000,163.100000,239.301000C163.100000,197.201000,197.300000,163.001000,239.400000,163.001000C281.500000,163.001000,315.700000,197.201000,315.700000,239.301000C315.700000,281.401000,281.500000,315.601000,239.400000,315.601000Z" fill="rgb(220,199,199)" stroke="none" stroke-width="1"/></g></g></svg>